<svg width="50" height="50" viewBox="0 0 50 50" fill="none" xmlns="http://www.w3.org/2000/svg">
<path d="M34.3755 12.501H28.1255C26.9749 12.501 26.0422 13.4337 26.0422 14.5843V20.8343H34.3755C34.6124 20.8291 34.8372 20.9393 34.978 21.1299C35.1189 21.3206 35.1584 21.5676 35.0839 21.7926L33.5422 26.376C33.4001 26.7966 33.007 27.081 32.563 27.0843H26.0422V42.7093C26.0422 43.2845 25.5757 43.751 25.0005 43.751H19.7922C19.2169 43.751 18.7505 43.2845 18.7505 42.7093V27.0843H15.6255C15.0502 27.0843 14.5839 26.6179 14.5839 26.0426V21.876C14.5839 21.3008 15.0502 20.8343 15.6255 20.8343H18.7505V14.5843C18.7505 9.98193 22.4816 6.25098 27.0839 6.25098H34.3755C34.9507 6.25098 35.4172 6.71735 35.4172 7.29264V11.4593C35.4172 12.0346 34.9507 12.501 34.3755 12.501Z" fill="white"/>
</svg>
