<svg width="50" height="50" viewBox="0 0 50 50" fill="none" xmlns="http://www.w3.org/2000/svg">
<path fill-rule="evenodd" clip-rule="evenodd" d="M33.3344 6.25098H16.6678C10.9148 6.25098 6.2511 10.9147 6.2511 16.6676V33.3343C6.2511 39.0872 10.9148 43.751 16.6678 43.751H33.3344C39.0873 43.751 43.7511 39.0872 43.7511 33.3343V16.6676C43.7511 10.9147 39.0873 6.25098 33.3344 6.25098ZM40.1053 33.3343C40.0938 37.0689 37.069 40.0937 33.3344 40.1051H16.6678C12.9331 40.0937 9.90837 37.0689 9.89693 33.3343V16.6676C9.90837 12.933 12.9331 9.90825 16.6678 9.89681H33.3344C37.069 9.90825 40.0938 12.933 40.1053 16.6676V33.3343ZM34.8969 17.1885C36.0476 17.1885 36.9803 16.2557 36.9803 15.1051C36.9803 13.9546 36.0476 13.0218 34.8969 13.0218C33.7463 13.0218 32.8136 13.9546 32.8136 15.1051C32.8136 16.2557 33.7463 17.1885 34.8969 17.1885ZM25.0011 15.626C19.8234 15.626 15.6261 19.8233 15.6261 25.001C15.6261 30.1787 19.8234 34.376 25.0011 34.376C30.1788 34.376 34.3761 30.1787 34.3761 25.001C34.3817 22.5129 33.3957 20.1251 31.6363 18.3657C29.8769 16.6064 27.4892 15.6204 25.0011 15.626ZM19.2719 25.001C19.2719 28.1651 21.8369 30.7301 25.0011 30.7301C28.1653 30.7301 30.7303 28.1651 30.7303 25.001C30.7303 21.8368 28.1653 19.2718 25.0011 19.2718C21.8369 19.2718 19.2719 21.8368 19.2719 25.001Z" fill="white"/>
</svg>
