<svg width="50" height="50" viewBox="0 0 50 50" fill="none" xmlns="http://www.w3.org/2000/svg">
<path fill-rule="evenodd" clip-rule="evenodd" d="M10.4162 6.25098H39.5828C41.8841 6.25098 43.7495 8.11646 43.7495 10.4176V39.5843C43.7495 41.8856 41.8841 43.751 39.5828 43.751H10.4162C8.11499 43.751 6.24951 41.8856 6.24951 39.5843V10.4176C6.24951 8.11646 8.11499 6.25098 10.4162 6.25098ZM16.6662 37.501C17.2415 37.501 17.7078 37.0345 17.7078 36.4593V21.876C17.7078 21.3008 17.2415 20.8343 16.6662 20.8343H13.5412C12.9659 20.8343 12.4995 21.3008 12.4995 21.876V36.4593C12.4995 37.0345 12.9659 37.501 13.5412 37.501H16.6662ZM15.1037 18.751C13.3778 18.751 11.9787 17.3519 11.9787 15.626C11.9787 13.9001 13.3778 12.501 15.1037 12.501C16.8296 12.501 18.2287 13.9001 18.2287 15.626C18.2287 17.3519 16.8296 18.751 15.1037 18.751ZM36.4578 37.501C37.0331 37.501 37.4995 37.0345 37.4995 36.4593V26.876C37.5672 23.5651 35.1195 20.7396 31.8328 20.3343C29.5349 20.1244 27.3085 21.1976 26.0412 23.126V21.876C26.0412 21.3008 25.5747 20.8343 24.9995 20.8343H21.8745C21.2993 20.8343 20.8328 21.3008 20.8328 21.876V36.4593C20.8328 37.0345 21.2993 37.501 21.8745 37.501H24.9995C25.5747 37.501 26.0412 37.0345 26.0412 36.4593V28.6468C26.0412 26.921 27.4403 25.5218 29.1662 25.5218C30.892 25.5218 32.2912 26.921 32.2912 28.6468V36.4593C32.2912 37.0345 32.7576 37.501 33.3328 37.501H36.4578Z" fill="white"/>
</svg>
