<svg width="25" height="25" viewBox="0 0 25 25" fill="none" xmlns="http://www.w3.org/2000/svg">
<g clip-path="url(#clip0_0_40)">
<path d="M20.8332 4.16462H4.16662C3.02079 4.16462 2.09371 5.10211 2.09371 6.24794L2.08329 18.7479C2.08329 19.8937 3.02079 20.8312 4.16662 20.8312H20.8332C21.9791 20.8312 22.9166 19.8937 22.9166 18.7479V6.24794C22.9166 5.10211 21.9791 4.16462 20.8332 4.16462ZM19.7916 18.7479H5.20828C4.63537 18.7479 4.16662 18.2792 4.16662 17.7062V8.33127L11.3958 12.8521C12.0728 13.2792 12.927 13.2792 13.6041 12.8521L20.8332 8.33127V17.7062C20.8332 18.2792 20.3645 18.7479 19.7916 18.7479ZM12.4999 11.4563L4.16662 6.24794H20.8332L12.4999 11.4563Z" fill="white"/>
</g>
<defs>
<clipPath id="clip0_0_40">
<rect width="24.7973" height="24.7973" fill="white" transform="scale(1.00817)"/>
</clipPath>
</defs>
</svg>
