<svg width="25" height="25" viewBox="0 0 25 25" fill="none" xmlns="http://www.w3.org/2000/svg">
<g clip-path="url(#clip0_0_35)">
<path d="M14.583 8.33326H16.6663V10.4166C16.6663 10.9895 17.135 11.4583 17.708 11.4583C18.2809 11.4583 18.7496 10.9895 18.7496 10.4166V8.33326H20.833C21.4059 8.33326 21.8746 7.86451 21.8746 7.29159C21.8746 6.71868 21.4059 6.24993 20.833 6.24993H18.7496V4.1666C18.7496 3.59369 18.2809 3.12494 17.708 3.12494C17.135 3.12494 16.6663 3.59369 16.6663 4.1666V6.24993H14.583C14.0101 6.24993 13.5413 6.71868 13.5413 7.29159C13.5413 7.86451 14.0101 8.33326 14.583 8.33326ZM20.01 15.9062L17.3642 15.6041C16.7288 15.5312 16.1038 15.7499 15.6559 16.1978L13.7392 18.1145C10.7913 16.6145 8.37466 14.2082 6.87466 11.2499L8.80174 9.32284C9.24965 8.87492 9.4684 8.23951 9.39549 7.61451L9.0934 4.98952C8.97882 3.93744 8.08299 3.13536 7.03091 3.13536H5.22883C4.05175 3.13536 3.07259 4.11452 3.1455 5.2916C3.69758 14.1874 10.8121 21.2916 19.6975 21.8436C20.8746 21.9166 21.8538 20.9374 21.8538 19.7603V17.9582C21.8642 16.9166 21.0621 16.0207 20.01 15.9062Z" fill="white"/>
</g>
<defs>
<clipPath id="clip0_0_35">
<rect width="24.7973" height="24.7973" fill="white" transform="scale(1.00817)"/>
</clipPath>
</defs>
</svg>
