<svg width="50" height="50" viewBox="0 0 50 50" fill="none" xmlns="http://www.w3.org/2000/svg">
<path d="M43.6917 13.9965C42.7242 15.2872 41.5546 16.4131 40.2282 17.3306C40.2282 17.6678 40.2282 18.0049 40.2282 18.3608C40.2388 24.4834 37.7932 30.3542 33.4396 34.6572C29.0859 38.9601 23.1884 41.3351 17.0693 41.2497C13.5317 41.2615 10.0393 40.4538 6.86591 38.8897C6.69478 38.8149 6.58443 38.6457 6.58507 38.4588V38.2528C6.58507 37.9838 6.80301 37.7659 7.07185 37.7659C10.5492 37.6511 13.9026 36.4455 16.6574 34.3195C13.5099 34.2559 10.6779 32.3913 9.37462 29.5242C9.3088 29.3678 9.32928 29.188 9.42872 29.0503C9.52814 28.9126 9.69212 28.8367 9.86139 28.8501C10.818 28.9461 11.7842 28.8572 12.7071 28.5878C9.23251 27.8665 6.62172 24.982 6.24807 21.4513C6.2348 21.282 6.3107 21.118 6.44837 21.0184C6.58601 20.919 6.76553 20.8984 6.92207 20.9645C7.85449 21.3759 8.86105 21.5926 9.88012 21.6011C6.83553 19.6029 5.52047 15.8021 6.67868 12.3482C6.79824 12.0126 7.08547 11.7647 7.43482 11.6956C7.78416 11.6264 8.14412 11.7463 8.38237 12.0111C12.4908 16.3837 18.1359 18.9894 24.1273 19.2786C23.974 18.6662 23.8986 18.0369 23.9027 17.4055C23.9588 14.0951 26.0071 11.1461 29.0888 9.93919C32.1702 8.73225 35.6752 9.50619 37.9629 11.8987C39.5221 11.6016 41.0296 11.0779 42.4373 10.3441C42.5405 10.2797 42.6713 10.2797 42.7744 10.3441C42.8388 10.4472 42.8388 10.578 42.7744 10.6812C42.0925 12.2426 40.9407 13.5522 39.4794 14.4274C40.759 14.279 42.0161 13.9771 43.2238 13.5283C43.3254 13.4591 43.459 13.4591 43.5607 13.5283C43.6459 13.5672 43.7096 13.6418 43.7348 13.732C43.76 13.8222 43.7442 13.919 43.6917 13.9965Z" fill="white"/>
</svg>
